<svg xmlns="http://www.w3.org/2000/svg" viewBox="0 0 280.584 210.438">
  <defs>
    <style>
      .cls-1 {
        fill: #1abc9c;
      }
    </style>
  </defs>
  <path id="chart-line-solid" class="cls-1" d="M271.816,239.365H35.073V72.768A8.766,8.766,0,0,0,26.3,64H8.768A8.766,8.766,0,0,0,0,72.768V256.9a17.539,17.539,0,0,0,17.537,17.537h254.28a8.766,8.766,0,0,0,8.768-8.768V248.134A8.766,8.766,0,0,0,271.816,239.365ZM254.28,81.537h-64.7a13.152,13.152,0,0,0-9.3,22.452l17.756,17.756-40.208,40.213L117.621,121.75a17.53,17.53,0,0,0-24.8,0L55.18,159.393a8.768,8.768,0,0,0,0,12.4l12.4,12.4a8.768,8.768,0,0,0,12.4,0l25.242-25.247,40.208,40.208a17.53,17.53,0,0,0,24.8,0l52.61-52.61L240.59,164.3a13.152,13.152,0,0,0,22.452-9.3V90.3A8.758,8.758,0,0,0,254.28,81.537Z" transform="translate(0 -64)"/>
</svg>
