<svg xmlns="http://www.w3.org/2000/svg" viewBox="0 0 243.625 216.553">
  <defs>
    <style>
      .cls-1 {
        fill: #e74c3c;
      }
    </style>
  </defs>
  <path id="hand-holding-heart-solid" class="cls-1" d="M116.434,105.933a7.368,7.368,0,0,0,10.785,0l46.058-48.3c13.365-14.042,12.6-37.3-2.368-50.245C157.882-3.9,138.469-1.873,126.543,10.646l-4.737,4.948-4.695-4.906C105.184-1.873,85.772-3.9,72.745,7.389c-14.93,12.942-15.733,36.2-2.368,50.245Zm122.652,32.82c-4.991-4.525-12.773-4.229-18.017,0L181.99,170.008a26.926,26.926,0,0,1-16.917,5.921H115.039a6.767,6.767,0,0,1,0-13.534h33.116c6.725,0,12.984-4.61,14.084-11.25a13.55,13.55,0,0,0-13.365-15.818H81.2a49.778,49.778,0,0,0-31.34,11.123L30.2,162.4H6.767A6.787,6.787,0,0,0,0,169.162v40.6a6.787,6.787,0,0,0,6.767,6.767h150.9a27.1,27.1,0,0,0,16.917-5.921l63.948-51.175A13.527,13.527,0,0,0,239.086,138.753Z" transform="translate(0 0.022)"/>
</svg>
