<svg xmlns="http://www.w3.org/2000/svg" viewBox="0 0 306.281 204.187">
  <defs>
    <style>
      .cls-1 {
        fill: #6c5ce7;
      }
    </style>
  </defs>
  <path id="newspaper-solid" class="cls-1" d="M293.519,64H46.793A12.762,12.762,0,0,0,34.031,76.762v4.254H12.762A12.762,12.762,0,0,0,0,93.777V238.41a29.777,29.777,0,0,0,29.777,29.777h250.98a25.523,25.523,0,0,0,25.523-25.523V76.762A12.762,12.762,0,0,0,293.519,64ZM29.777,242.664a4.254,4.254,0,0,1-4.254-4.254V106.539h8.508V238.41A4.254,4.254,0,0,1,29.777,242.664Zm125.49-8.508H74.443a6.381,6.381,0,0,1-6.381-6.381v-4.254a6.381,6.381,0,0,1,6.381-6.381h80.824a6.381,6.381,0,0,1,6.381,6.381v4.254A6.381,6.381,0,0,1,155.267,234.156Zm110.6,0H185.044a6.381,6.381,0,0,1-6.381-6.381v-4.254a6.381,6.381,0,0,1,6.381-6.381h80.824a6.381,6.381,0,0,1,6.381,6.381v4.254A6.381,6.381,0,0,1,265.868,234.156Zm-110.6-51.047H74.443a6.381,6.381,0,0,1-6.381-6.381v-4.254a6.381,6.381,0,0,1,6.381-6.381h80.824a6.381,6.381,0,0,1,6.381,6.381v4.254A6.381,6.381,0,0,1,155.267,183.109Zm110.6,0H185.044a6.381,6.381,0,0,1-6.381-6.381v-4.254a6.381,6.381,0,0,1,6.381-6.381h80.824a6.381,6.381,0,0,1,6.381,6.381v4.254A6.381,6.381,0,0,1,265.868,183.109Zm0-51.047H74.443a6.381,6.381,0,0,1-6.381-6.381V104.412a6.381,6.381,0,0,1,6.381-6.381H265.868a6.381,6.381,0,0,1,6.381,6.381v21.269A6.381,6.381,0,0,1,265.868,132.062Z" transform="translate(0 -64)"/>
</svg>
