<svg xmlns="http://www.w3.org/2000/svg" viewBox="0 0 69.988 53.336">
  <defs>
    <style>
      .cls-1 {
        fill: #a5a5a5;
      }
    </style>
  </defs>
  <path id="sign-out-alt-solid" class="cls-1" d="M69.02,93.006,45.689,116.337A3.338,3.338,0,0,1,40,113.976V100.644H21.109a3.325,3.325,0,0,1-3.333-3.333V83.979a3.325,3.325,0,0,1,3.333-3.333H40V67.315a3.34,3.34,0,0,1,5.694-2.361L69.02,88.284A3.361,3.361,0,0,1,69.02,93.006ZM26.664,115.642v-5.555A1.671,1.671,0,0,0,25,108.421H13.332a4.439,4.439,0,0,1-4.444-4.444V77.313a4.439,4.439,0,0,1,4.444-4.444H25A1.671,1.671,0,0,0,26.664,71.2V65.648A1.671,1.671,0,0,0,25,63.982H13.332A13.335,13.335,0,0,0,0,77.313v26.664a13.335,13.335,0,0,0,13.332,13.332H25A1.671,1.671,0,0,0,26.664,115.642Z" transform="translate(0 -63.978)"/>
</svg>
